<svg xmlns="http://www.w3.org/2000/svg" width="75" height="75" viewBox="0 0 75 75"><defs><style>.cls-1,.cls-3{fill:#17344e}.cls-1{opacity:.7}.cls-2{opacity:.1}.cls-4,.cls-5{fill:#fff}.cls-4{stroke:#fff;stroke-linejoin:round;stroke-width:1.72px}</style></defs><title>audio</title><g id="Layer_7" data-name="Layer 7"><circle class="cls-1" cx="37.5" cy="37.5" r="30.99"/><path class="cls-2 cls-3" d="M37.5 6.51a31 31 0 1 1-31 31 31 31 0 0 1 31-31m0-6a37 37 0 1 0 37 37 37 37 0 0 0-37-37z"/><path class="cls-4" d="M30.09 23.1v28.8l21.88-14.4-21.88-14.4z"/><path class="cls-5" d="M37.5 6.51a31 31 0 1 1-31 31 31 31 0 0 1 31-31m0-2a33 33 0 1 0 33 33 33 33 0 0 0-33-33z"/></g></svg>