<svg id="Layer_1" xmlns="http://www.w3.org/2000/svg" width="86" height="24" viewBox="0 0 86 24"><style>.st0{fill:#fff}</style><path class="st0" d="M19.7 0H2.4C1.2 0 .3 1 .3 2.2v19.7c0 1.2 1 2.2 2.2 2.2h17.3c1.2 0 2.2-1 2.2-2.2V2.2C21.9 1 20.9 0 19.7 0zm1 21.8c0 .5-.4 1-1 1H2.4c-.5 0-1-.4-1-1V2.2c0-.5.4-1 1-1h17.3c.5 0 1 .4 1 1v19.6z"/><path class="st0" d="M5.7 20.4L8.4 18l-2.7-2.4zM12.6 9.6c-1.6 0-3.3.4-4.5.8V3.6H5.7V14l1.7-.8s2.8-1.2 5.2-1.2c1.2 0 1.5.7 1.5 1.2v7.2h2.4v-7.2c0-.2 0-1.5-1-2.5-.5-.5-1.4-1.1-2.9-1.1zM12.3 7.5h2.4c1.1-1.2 1.6-2.5 1.8-3.9h-2.4c-.3 1.4-.9 2.7-1.8 3.9zM32.6 11.1h-2.9V7.8h-2.4v8.9h2.4v-3.6h2.9v3.6H35V7.8h-2.4zM40.5 13.1h2.8v-1.9h-2.8V9.8h3.9v-2h-6.3v8.9h6.5v-2h-4.1zM54.4 10.7c0-2.1-1.4-2.9-3.7-2.9h-3.5v8.9h2.3v-3.1h.7l1.7 3.1h2.5l-1.9-3.4c1.3-.4 1.9-1.2 1.9-2.6zm-3.8 1.1h-1v-2h1c1 0 1.4.3 1.4 1s-.4 1-1.4 1zM61.2 7.6c-2.1 0-4.4 1.4-4.4 4.6 0 3.2 2.2 4.6 4.4 4.6 2.1 0 4.3-1.4 4.3-4.6 0-3.2-2.2-4.6-4.3-4.6zm0 7.3c-1.3 0-2-1.1-2-2.7s.7-2.6 2-2.6c1.2 0 1.9 1 1.9 2.6.1 1.7-.7 2.7-1.9 2.7zM75.8 7.8H73L70.6 11V7.8h-2.4v8.9h2.4v-2.8l.7-.8 2.1 3.6h2.7l-3.3-5.4zM83.4 7.8v5.3c0 1.2-.4 1.8-1.3 1.8-1 0-1.4-.6-1.4-1.8V7.8h-2.4v5.3c0 2.3 1.1 3.7 3.7 3.7s3.7-1.3 3.7-3.7V7.8h-2.3z"/></svg>